<?xml version="1.0" standalone="no"?>
<!DOCTYPE svg PUBLIC "-//W3C//DTD SVG 20010904//EN"
 "http://www.w3.org/TR/2001/REC-SVG-20010904/DTD/svg10.dtd">
<svg version="1.0" xmlns="http://www.w3.org/2000/svg"
 width="1024.000000pt" height="1024.000000pt" viewBox="0 0 1024.000000 1024.000000"
 preserveAspectRatio="xMidYMid meet">

<g transform="translate(0.000000,1024.000000) scale(0.100000,-0.100000)"
fill="#000000" stroke="none">
<path d="M5065 9435 l-25 -24 0 -231 0 -231 25 -24 c27 -27 79 -33 106 -12 35
27 39 53 39 272 l0 217 -29 29 c-38 37 -82 39 -116 4z"/>
<path d="M4053 9100 c-26 -11 -43 -40 -43 -74 0 -30 52 -93 212 -259 96 -100
118 -117 144 -117 57 0 98 64 72 113 -16 31 -284 318 -312 334 -24 14 -43 15
-73 3z"/>
<path d="M6107 9081 c-62 -55 -292 -312 -300 -336 -18 -52 42 -113 97 -99 25
6 309 304 334 350 16 31 6 69 -25 94 -36 28 -67 25 -106 -9z"/>
<path d="M4925 8696 c-195 -46 -368 -145 -498 -285 -76 -82 -111 -135 -162
-244 -81 -171 -95 -277 -95 -724 l0 -283 955 0 955 0 0 303 c0 420 -17 533
-105 713 -116 235 -328 416 -585 499 -75 25 -103 28 -245 31 -113 3 -178 -1
-220 -10z m295 -461 c59 -31 61 -40 58 -420 l-3 -346 -150 0 -150 0 -3 333
c-4 370 0 397 51 428 40 25 153 27 197 5z"/>
<path d="M3112 7800 c-18 -4 -42 -16 -54 -26 -45 -41 -48 -65 -48 -394 l0
-310 -270 0 c-223 0 -276 -3 -300 -15 -63 -33 -60 39 -60 -1223 0 -879 3
-1151 12 -1160 16 -16 120 -16 136 0 9 9 12 273 12 1125 l0 1113 318 2 317 3
3 363 2 362 308 0 c226 0 311 3 320 12 7 7 12 39 12 75 0 51 -3 64 -19 73 -23
12 -638 12 -689 0z"/>
<path d="M6441 7796 c-7 -9 -11 -39 -9 -83 l3 -68 318 -3 317 -2 0 -365 0
-365 320 0 320 0 0 -1117 c0 -628 3 -1120 8 -1125 5 -5 38 -8 73 -6 l64 3 3
1158 c2 1273 6 1199 -58 1232 -24 12 -77 15 -300 15 l-270 0 0 323 c0 301 -1
324 -20 354 -35 58 -35 58 -411 61 -294 3 -347 1 -358 -12z"/>
<path d="M3940 7052 c-72 -32 -90 -72 -90 -199 l0 -103 1271 0 1271 0 -4 115
-3 115 -38 37 -37 38 -1178 2 c-647 1 -1184 -1 -1192 -5z"/>
<path d="M3758 6606 c-53 -19 -82 -40 -114 -81 -55 -73 -53 -30 -54 -1117 l0
-1008 -128 0 c-86 0 -132 -4 -140 -12 -8 -8 -12 -52 -12 -130 l0 -118 -184 0
-185 0 -20 -26 c-27 -34 -26 -47 2 -79 l22 -25 890 0 890 0 3 250 c3 308 -16
282 203 278 l154 -3 5 -265 5 -265 35 0 35 0 5 265 5 265 154 3 c125 2 158 0
177 -13 l24 -15 0 -253 0 -252 887 3 c985 3 923 -2 923 68 0 58 -20 64 -222
64 l-178 0 0 114 c0 63 -3 121 -6 130 -5 14 -27 16 -140 16 l-134 0 0 1013 0
1012 -24 51 c-27 59 -90 116 -145 132 -60 19 -2682 16 -2733 -2z m1583 -345
c17 -21 19 -42 19 -242 l0 -219 232 0 c201 0 234 -2 250 -17 16 -15 18 -35 18
-211 0 -168 -2 -198 -17 -214 -15 -16 -36 -18 -250 -18 l-233 0 0 -209 c0
-115 -4 -221 -9 -234 -6 -14 -20 -29 -33 -33 -12 -4 -104 -6 -203 -6 -166 2
-181 3 -200 22 -19 19 -20 34 -22 238 l-2 217 -228 3 c-193 2 -230 5 -245 19
-16 14 -18 36 -18 211 0 168 2 198 17 214 15 16 36 18 244 18 l228 0 3 221 3
221 29 24 c28 25 29 25 213 22 180 -3 185 -4 204 -27z"/>
<path d="M2962 6118 c-17 -17 -17 -349 0 -366 8 -8 46 -12 103 -12 57 0 95 4
103 12 17 17 17 349 0 366 -8 8 -46 12 -103 12 -57 0 -95 -4 -103 -12z"/>
<path d="M7084 6117 c-2 -7 -3 -94 -2 -192 l3 -180 105 0 105 0 3 184 c2 141
-1 186 -10 193 -22 14 -198 10 -204 -5z"/>
<path d="M3325 3546 c-194 -61 -306 -231 -292 -441 11 -182 120 -324 285 -375
317 -98 610 174 541 502 -42 199 -209 329 -418 327 -42 0 -94 -6 -116 -13z
m248 -169 c180 -106 166 -396 -23 -493 -43 -22 -142 -24 -190 -5 -95 39 -150
120 -158 232 -13 184 97 306 265 295 43 -2 75 -11 106 -29z"/>
<path d="M4163 3542 c-114 -41 -165 -109 -164 -219 1 -142 65 -195 314 -258
117 -30 159 -92 106 -158 -50 -65 -212 -50 -316 29 l-32 24 -47 -55 -47 -56
27 -28 c61 -64 190 -111 301 -111 180 0 305 102 305 250 0 138 -77 204 -306
261 -125 32 -168 76 -134 140 36 67 187 62 286 -9 l39 -28 48 57 47 57 -32 28
c-18 15 -62 41 -98 58 -84 39 -215 47 -297 18z"/>
<path d="M2189 3546 c0 -1 -1 -185 -2 -411 l-1 -410 82 -3 82 -3 0 171 0 170
180 0 180 0 0 -170 0 -170 80 0 80 0 0 416 0 415 -80 -3 -80 -2 0 -168 0 -168
-180 0 -180 0 0 171 0 170 -80 -2 c-44 -1 -80 -2 -81 -3z"/>
<path d="M4760 3546 c0 -4 0 -189 0 -413 l-1 -408 81 -3 80 -3 0 143 0 143
138 0 c130 0 140 1 188 27 99 52 152 153 141 268 -6 71 -35 128 -88 173 -69
60 -109 69 -336 74 -112 2 -203 2 -203 -1z m407 -170 c87 -53 64 -189 -37
-216 -22 -6 -74 -8 -124 -4 l-86 7 0 120 0 119 108 -4 c82 -3 114 -8 139 -22z"/>
<path d="M5540 3133 l0 -413 85 0 85 0 0 413 0 414 -85 0 -85 0 0 -414z"/>
<path d="M5850 3473 l0 -73 125 0 125 0 0 -341 0 -341 83 4 82 3 3 338 2 337
123 0 122 0 -2 72 -1 73 -331 1 -331 1 0 -74z"/>
<path d="M6667 3153 c-86 -219 -159 -406 -163 -416 -6 -16 1 -18 87 -15 l93 3
34 88 34 87 161 -2 161 -3 35 -87 34 -88 89 0 c48 0 88 3 88 6 0 3 -75 190
-166 415 l-167 409 -82 0 -82 0 -156 -397z m298 40 c28 -75 52 -140 53 -145 2
-4 -47 -8 -108 -8 -86 0 -111 3 -107 13 2 6 26 72 53 144 27 73 51 133 54 133
3 0 28 -62 55 -137z"/>
<path d="M7454 3537 c-2 -7 -3 -193 -2 -413 l3 -399 272 -3 271 -2 4 80 3 80
-192 0 -193 0 0 335 0 335 -80 0 c-57 0 -82 -4 -86 -13z"/>
<path d="M3855 2453 c-72 -26 -137 -67 -173 -107 -192 -219 -127 -564 128
-685 50 -24 66 -26 175 -26 112 0 123 2 173 28 52 27 142 102 142 117 0 4 -26
28 -59 53 l-58 46 -24 -26 c-58 -62 -185 -92 -262 -60 -162 68 -209 318 -86
452 23 25 60 51 85 61 83 32 196 2 263 -70 l24 -25 58 46 c33 25 59 49 59 53
0 18 -106 104 -157 127 -76 35 -214 42 -288 16z"/>
<path d="M2370 2050 l0 -411 83 3 82 3 0 405 0 405 -82 3 -83 3 0 -411z"/>
<path d="M2730 2050 l0 -410 80 0 80 0 2 264 3 263 184 -263 184 -264 79 0 78
0 0 410 0 410 -80 0 -80 0 -2 -270 -3 -270 -190 270 -190 269 -72 1 -73 0 0
-410z"/>
<path d="M4450 2050 l0 -410 80 0 80 0 0 410 0 410 -80 0 -80 0 0 -410z"/>
<path d="M4807 2454 c-3 -5 -4 -189 -4 -409 l2 -400 150 -3 c83 -1 182 2 220
8 199 30 331 172 343 369 11 205 -82 354 -258 412 -54 18 -96 23 -256 27 -105
2 -194 0 -197 -4z m393 -165 c54 -19 88 -46 117 -96 22 -39 28 -62 31 -132 4
-79 2 -90 -25 -141 -50 -96 -138 -135 -288 -128 l-66 3 0 253 c1 138 1 255 1
258 0 11 192 -3 230 -17z"/>
<path d="M5680 2050 l0 -410 275 0 275 0 0 75 0 75 -195 0 -195 0 0 95 0 95
170 0 170 0 0 70 0 70 -170 0 -170 0 0 95 0 95 190 0 190 0 0 75 0 75 -270 0
-270 0 0 -410z"/>
<path d="M6390 2050 l0 -410 80 0 80 0 2 266 3 266 185 -266 185 -265 78 -1
77 0 0 410 0 410 -80 0 -80 0 0 -271 0 -271 -123 173 c-67 96 -154 218 -192
272 l-69 97 -73 0 -73 0 0 -410z"/>
<path d="M7217 2453 c-3 -5 -4 -38 -4 -75 l1 -68 123 0 123 0 0 -335 0 -335
80 0 80 0 0 335 0 335 120 0 120 0 0 75 0 75 -319 0 c-176 0 -322 -3 -324 -7z"/>
<path d="M4760 1351 c-74 -24 -113 -58 -151 -131 -33 -64 -33 -185 0 -253 46
-95 148 -149 253 -133 110 16 188 123 188 256 l0 30 -110 0 -110 0 0 -40 0
-40 65 0 c74 0 80 -10 45 -67 -55 -90 -187 -82 -244 16 -42 73 -15 229 45 262
69 37 141 29 191 -21 28 -28 29 -29 58 -12 35 20 36 24 14 58 -39 59 -170 100
-244 75z"/>
<path d="M2180 1098 l0 -253 45 -1 45 -1 0 161 0 161 73 -120 c52 -86 78 -121
93 -123 19 -3 33 16 90 117 l69 120 3 -159 2 -159 45 2 45 1 0 254 0 253 -46
-3 -47 -3 -76 -137 c-42 -75 -79 -139 -82 -142 -3 -3 -42 60 -88 139 l-82 145
-45 0 -44 0 0 -252z"/>
<path d="M3019 1323 c-30 -77 -171 -459 -172 -467 -1 -5 18 -9 43 -10 l44 -1
21 55 21 55 96 3 95 3 23 -61 22 -60 44 2 c24 0 44 4 44 6 0 3 -41 117 -92
254 l-92 248 -43 0 c-38 0 -45 -3 -54 -27z m89 -186 c17 -50 32 -95 32 -99 0
-5 -32 -8 -71 -8 -53 0 -70 3 -67 13 3 6 18 51 34 99 16 48 31 88 34 88 3 0
20 -42 38 -93z"/>
<path d="M3450 1095 l0 -257 43 4 42 3 5 165 5 165 120 -165 c120 -164 121
-164 163 -168 l42 -3 0 255 0 256 -45 0 -45 0 -2 -168 -3 -169 -120 166 c-121
166 -121 166 -163 169 l-42 3 0 -256z"/>
<path d="M4190 1293 c-62 -164 -160 -436 -160 -445 0 -5 19 -8 42 -6 42 3 44
4 65 58 l22 55 97 0 97 0 20 -57 19 -58 44 0 c24 0 44 4 44 10 0 5 -41 120
-92 255 l-91 245 -43 0 -43 0 -21 -57z m104 -166 l35 -97 -76 0 c-68 0 -74 2
-68 18 4 9 18 49 31 87 33 97 34 98 39 94 2 -2 20 -48 39 -102z"/>
<path d="M5222 1098 l3 -253 165 1 165 0 0 38 0 38 -117 -1 -118 -2 0 71 0 72
100 -4 100 -3 0 43 0 42 -100 0 -100 0 0 60 0 60 115 0 115 0 0 45 0 45 -165
0 -165 0 2 -252z"/>
<path d="M5730 1095 l0 -255 45 0 45 0 2 163 3 162 72 -121 c93 -157 95 -157
183 -6 36 61 68 114 73 118 4 4 7 -65 7 -153 l0 -161 43 2 c23 0 41 4 40 9 -2
4 -3 117 -3 252 l0 245 -44 0 -45 0 -78 -145 c-43 -80 -80 -145 -83 -145 -3 1
-41 66 -85 145 l-80 145 -47 0 -48 0 0 -255z"/>
<path d="M6450 1096 l0 -254 165 0 165 0 0 42 0 41 -120 -3 -120 -3 0 71 0 71
103 -2 102 -2 3 42 3 41 -105 0 -106 0 0 60 0 60 115 0 115 0 0 45 0 45 -160
0 -160 0 0 -254z"/>
<path d="M6952 1098 l3 -252 47 -3 48 -4 2 167 3 166 120 -165 120 -165 40 2
40 1 3 253 2 252 -45 0 -45 0 -2 -171 -3 -170 -123 170 -124 171 -44 0 -44 0
2 -252z"/>
<path d="M7530 1305 l0 -45 75 0 75 0 2 -207 3 -208 48 -2 47 -1 0 209 0 209
75 0 75 0 0 45 0 45 -200 0 -200 0 0 -45z"/>
</g>
</svg>
